<?xml version="1.0" encoding="UTF-8"?>
<svg id="Layer_2" data-name="Layer 2" xmlns="http://www.w3.org/2000/svg" xmlns:xlink="http://www.w3.org/1999/xlink" viewBox="0 0 149.72 149.72">
  <defs>
    <style>
      .cls-1 {
        fill: none;
        stroke: url(#linear-gradient);
        stroke-linecap: round;
        stroke-miterlimit: 10;
        stroke-width: 16px;
      }

      .cls-2 {
        fill: #ececec;
      }
    </style>
    <linearGradient id="linear-gradient" x1="0" y1="74.86" x2="149.72" y2="74.86" gradientUnits="userSpaceOnUse">
      <stop offset="0" stop-color="#23074d"/>
      <stop offset=".12" stop-color="#28094c"/>
      <stop offset=".28" stop-color="#391149"/>
      <stop offset=".47" stop-color="#551d45"/>
      <stop offset=".67" stop-color="#7c2f3f"/>
      <stop offset=".88" stop-color="#ad4537"/>
      <stop offset="1" stop-color="#cc5333"/>
    </linearGradient>
  </defs>
  <g id="Camada_2" data-name="Camada 2">
    <g>
      <path class="cls-1" d="M141.72,74.86c0,36.93-29.93,66.86-66.86,66.86S8,111.78,8,74.86,37.93,8,74.86,8"/>
      <g>
        <path class="cls-2" d="M48.17,70.05h-10.42v-6.65h21.92l-13.35,27.31h-8.27l10.12-20.65Z"/>
        <path class="cls-2" d="M70.44,73.32c1.33,0,2.55,.22,3.65,.65,1.1,.44,2.06,1.04,2.87,1.83s1.44,1.72,1.88,2.81c.45,1.09,.67,2.29,.67,3.6,0,1.38-.26,2.65-.77,3.81-.51,1.15-1.24,2.14-2.17,2.96-.94,.82-2.05,1.46-3.35,1.92-1.29,.46-2.72,.69-4.29,.69-2,0-3.8-.37-5.4-1.12-1.6-.74-2.84-1.81-3.71-3.19l4-4.62c.74,.79,1.57,1.42,2.48,1.87,.91,.45,1.8,.67,2.67,.67,.95,0,1.69-.26,2.23-.77,.54-.51,.81-1.21,.81-2.08s-.24-1.53-.73-2.04c-.49-.51-1.13-.77-1.92-.77-.54,0-1.03,.12-1.48,.37-.45,.24-.79,.57-1.02,.98h-6.27l3.23-17h13.69v6.65h-8.42l-.42,2.96c.1-.03,.24-.05,.42-.08,.13-.03,.31-.05,.54-.08s.5-.04,.81-.04Z"/>
        <path class="cls-2" d="M88.63,70.32c-.98,0-1.88-.16-2.71-.48-.83-.32-1.56-.75-2.17-1.29-.62-.54-1.1-1.18-1.44-1.92-.35-.74-.52-1.54-.52-2.38s.17-1.64,.52-2.38c.35-.74,.83-1.38,1.44-1.92,.62-.54,1.34-.97,2.17-1.29,.83-.32,1.74-.48,2.71-.48s1.84,.16,2.67,.48c.83,.32,1.56,.75,2.17,1.29,.62,.54,1.1,1.18,1.46,1.92,.36,.74,.54,1.54,.54,2.38s-.18,1.64-.54,2.38c-.36,.74-.85,1.38-1.46,1.92-.62,.54-1.34,.97-2.17,1.29-.83,.32-1.72,.48-2.67,.48Zm-3.62,13.04l10.88-12.27,9.65-12.96,3.19,2.88-10.42,11.88-10.12,13.35-3.19-2.88Zm3.62-16.5c.51,0,.95-.26,1.31-.77,.36-.51,.54-1.13,.54-1.85s-.18-1.33-.54-1.85c-.36-.51-.8-.77-1.31-.77s-.95,.26-1.31,.77c-.36,.51-.54,1.13-.54,1.85s.18,1.33,.54,1.85c.36,.51,.79,.77,1.31,.77Zm16.5,19.38c-.97,0-1.88-.16-2.71-.48-.83-.32-1.56-.75-2.17-1.29-.62-.54-1.1-1.18-1.44-1.92-.35-.74-.52-1.54-.52-2.38s.17-1.64,.52-2.38c.35-.74,.83-1.38,1.44-1.92,.62-.54,1.34-.97,2.17-1.29,.83-.32,1.74-.48,2.71-.48s1.84,.16,2.67,.48c.83,.32,1.56,.75,2.17,1.29,.62,.54,1.1,1.18,1.46,1.92,.36,.74,.54,1.54,.54,2.38s-.18,1.64-.54,2.38c-.36,.74-.85,1.38-1.46,1.92-.62,.54-1.34,.97-2.17,1.29-.83,.32-1.73,.48-2.67,.48Zm0-3.46c.51,0,.95-.26,1.31-.77,.36-.51,.54-1.13,.54-1.85s-.18-1.33-.54-1.85c-.36-.51-.79-.77-1.31-.77s-.95,.26-1.31,.77c-.36,.51-.54,1.13-.54,1.85s.18,1.33,.54,1.85c.36,.51,.79,.77,1.31,.77Z"/>
      </g>
    </g>
  </g>
</svg>