<?xml version="1.0" encoding="UTF-8"?>
<svg id="Layer_2" data-name="Layer 2" xmlns="http://www.w3.org/2000/svg" xmlns:xlink="http://www.w3.org/1999/xlink" viewBox="0 0 149.72 149.72">
  <defs>
    <style>
      .cls-1 {
        fill: none;
        stroke: url(#linear-gradient);
        stroke-linecap: round;
        stroke-miterlimit: 10;
        stroke-width: 16px;
      }

      .cls-2 {
        fill: #ececec;
      }
    </style>
    <linearGradient id="linear-gradient" x1="0" y1="74.86" x2="149.72" y2="74.86" gradientUnits="userSpaceOnUse">
      <stop offset="0" stop-color="#23074d"/>
      <stop offset=".12" stop-color="#28094c"/>
      <stop offset=".28" stop-color="#391149"/>
      <stop offset=".47" stop-color="#551d45"/>
      <stop offset=".67" stop-color="#7c2f3f"/>
      <stop offset=".88" stop-color="#ad4537"/>
      <stop offset="1" stop-color="#cc5333"/>
    </linearGradient>
  </defs>
  <g id="Camada_2" data-name="Camada 2">
    <g>
      <path class="cls-1" d="M137.79,52.21c2.55,7.07,3.93,14.7,3.93,22.65,0,36.93-29.93,66.86-66.86,66.86S8,111.78,8,74.86,37.93,8,74.86,8"/>
      <g>
        <path class="cls-2" d="M56.9,80.03c0,1.33-.27,2.54-.81,3.63-.54,1.09-1.28,2.03-2.21,2.81-.94,.78-2.03,1.38-3.29,1.81-1.26,.42-2.59,.63-4,.63s-2.66-.21-3.9-.63c-1.24-.42-2.34-1.03-3.29-1.83-.95-.79-1.71-1.76-2.27-2.88-.56-1.13-.85-2.38-.85-3.77,0-.69,.1-1.33,.31-1.92,.21-.59,.47-1.13,.79-1.62,.32-.49,.67-.92,1.06-1.31,.38-.38,.77-.72,1.15-1-.74-.44-1.35-1.09-1.83-1.96-.47-.87-.71-1.76-.71-2.65,0-1.31,.3-2.47,.9-3.48,.6-1.01,1.37-1.87,2.29-2.56,.92-.69,1.95-1.21,3.08-1.56,1.13-.35,2.22-.52,3.27-.52s2.14,.17,3.27,.52c1.13,.35,2.16,.85,3.1,1.52,.94,.67,1.7,1.51,2.31,2.52,.6,1.01,.9,2.17,.9,3.48,0,.9-.24,1.79-.73,2.69-.49,.9-1.1,1.56-1.85,2,.38,.28,.78,.62,1.17,1.02,.4,.4,.75,.85,1.06,1.37s.56,1.08,.77,1.69,.31,1.28,.31,2Zm-7.42-.42c0-.85-.28-1.5-.83-1.96s-1.24-.69-2.06-.69-1.54,.24-2.08,.71c-.54,.47-.81,1.12-.81,1.94,0,.74,.28,1.37,.83,1.88,.55,.51,1.24,.77,2.06,.77s1.54-.26,2.08-.77c.54-.51,.81-1.14,.81-1.88Zm-5-10.12c0,.69,.22,1.21,.67,1.54s.93,.5,1.44,.5,1-.17,1.46-.5,.69-.85,.69-1.54c0-.51-.2-.95-.6-1.31-.4-.36-.92-.54-1.56-.54s-1.15,.18-1.54,.54c-.38,.36-.58,.79-.58,1.31Z"/>
        <path class="cls-2" d="M80.36,77.26c0,1.69-.26,3.25-.77,4.67-.51,1.42-1.22,2.65-2.13,3.69-.91,1.04-1.99,1.85-3.23,2.42-1.24,.58-2.6,.87-4.06,.87s-2.81-.29-4.06-.87c-1.24-.58-2.32-1.38-3.23-2.42-.91-1.04-1.62-2.27-2.13-3.69-.51-1.42-.77-2.98-.77-4.67s.26-3.25,.77-4.67c.51-1.42,1.22-2.65,2.13-3.69,.91-1.04,1.99-1.85,3.23-2.44,1.24-.59,2.6-.88,4.06-.88s2.81,.29,4.06,.88c1.24,.59,2.32,1.4,3.23,2.44,.91,1.04,1.62,2.27,2.13,3.69s.77,2.98,.77,4.67Zm-7.38,0c0-1.49-.26-2.69-.79-3.62-.53-.92-1.2-1.38-2.02-1.38-.87,0-1.57,.46-2.1,1.38-.53,.92-.79,2.13-.79,3.62s.26,2.69,.79,3.6c.52,.91,1.22,1.37,2.1,1.37,.82,0,1.49-.46,2.02-1.37,.53-.91,.79-2.11,.79-3.6Z"/>
        <path class="cls-2" d="M90.09,72.99c-.98,0-1.88-.16-2.71-.48-.83-.32-1.56-.75-2.17-1.29-.62-.54-1.1-1.18-1.44-1.92-.35-.74-.52-1.54-.52-2.38s.17-1.64,.52-2.38c.35-.74,.83-1.38,1.44-1.92,.62-.54,1.34-.97,2.17-1.29,.83-.32,1.74-.48,2.71-.48s1.84,.16,2.67,.48c.83,.32,1.56,.75,2.17,1.29,.62,.54,1.1,1.18,1.46,1.92,.36,.74,.54,1.54,.54,2.38s-.18,1.64-.54,2.38c-.36,.74-.85,1.38-1.46,1.92-.62,.54-1.34,.97-2.17,1.29-.83,.32-1.72,.48-2.67,.48Zm-3.62,13.04l10.88-12.27,9.65-12.96,3.19,2.88-10.42,11.88-10.12,13.35-3.19-2.88Zm3.62-16.5c.51,0,.95-.26,1.31-.77,.36-.51,.54-1.13,.54-1.85s-.18-1.33-.54-1.85c-.36-.51-.8-.77-1.31-.77s-.95,.26-1.31,.77c-.36,.51-.54,1.13-.54,1.85s.18,1.33,.54,1.85,.79,.77,1.31,.77Zm16.5,19.38c-.97,0-1.88-.16-2.71-.48s-1.56-.75-2.17-1.29c-.62-.54-1.1-1.18-1.44-1.92-.35-.74-.52-1.54-.52-2.38s.17-1.64,.52-2.38c.35-.74,.83-1.38,1.44-1.92,.62-.54,1.34-.97,2.17-1.29,.83-.32,1.74-.48,2.71-.48s1.84,.16,2.67,.48c.83,.32,1.56,.75,2.17,1.29,.62,.54,1.1,1.18,1.46,1.92,.36,.74,.54,1.54,.54,2.38s-.18,1.64-.54,2.38c-.36,.74-.85,1.38-1.46,1.92-.62,.54-1.34,.97-2.17,1.29s-1.72,.48-2.67,.48Zm0-3.46c.51,0,.95-.26,1.31-.77,.36-.51,.54-1.13,.54-1.85s-.18-1.33-.54-1.85c-.36-.51-.79-.77-1.31-.77s-.95,.26-1.31,.77c-.36,.51-.54,1.13-.54,1.85s.18,1.33,.54,1.85c.36,.51,.79,.77,1.31,.77Z"/>
      </g>
    </g>
  </g>
</svg>