<?xml version="1.0" encoding="UTF-8"?>
<svg id="Layer_2" data-name="Layer 2" xmlns="http://www.w3.org/2000/svg" xmlns:xlink="http://www.w3.org/1999/xlink" viewBox="0 0 149.72 149.72">
  <defs>
    <style>
      .cls-1 {
        fill: none;
        stroke: url(#linear-gradient);
        stroke-linecap: round;
        stroke-miterlimit: 10;
        stroke-width: 16px;
      }

      .cls-2 {
        fill: #ececec;
      }
    </style>
    <linearGradient id="linear-gradient" x1="0" y1="74.86" x2="149.72" y2="74.86" gradientUnits="userSpaceOnUse">
      <stop offset="0" stop-color="#23074d"/>
      <stop offset=".12" stop-color="#28094c"/>
      <stop offset=".28" stop-color="#391149"/>
      <stop offset=".47" stop-color="#551d45"/>
      <stop offset=".67" stop-color="#7c2f3f"/>
      <stop offset=".88" stop-color="#ad4537"/>
      <stop offset="1" stop-color="#cc5333"/>
    </linearGradient>
  </defs>
  <g id="Camada_2" data-name="Camada 2">
    <g>
      <path class="cls-1" d="M119.25,24.86c13.78,12.25,22.47,30.11,22.47,49.99,0,36.93-29.93,66.86-66.86,66.86S8,111.78,8,74.86,37.93,8,74.86,8"/>
      <g>
        <path class="cls-2" d="M36.51,73.4c0-1.33,.26-2.59,.77-3.77s1.23-2.2,2.15-3.06c.92-.86,2.01-1.54,3.25-2.04,1.24-.5,2.6-.75,4.06-.75,1.64,0,3.1,.3,4.37,.9,1.27,.6,2.34,1.48,3.21,2.63,.87,1.15,1.54,2.56,2,4.23s.69,3.56,.69,5.69c0,2.26-.25,4.28-.75,6.06s-1.22,3.29-2.17,4.54c-.95,1.24-2.1,2.2-3.46,2.87-1.36,.67-2.9,1-4.62,1-3.33,0-6.23-1.23-8.69-3.69l4.04-4.69c1.38,1.38,2.97,2.08,4.77,2.08,1.26,0,2.25-.38,2.98-1.13,.73-.76,1.12-1.83,1.17-3.21-.98,.87-2.36,1.31-4.15,1.31-1.38,0-2.66-.22-3.83-.67-1.17-.45-2.18-1.08-3.04-1.88-.86-.81-1.53-1.76-2.02-2.85-.49-1.09-.73-2.27-.73-3.56Zm10.23-3.5c-.44,0-.85,.1-1.25,.29s-.74,.45-1.04,.77c-.29,.32-.53,.69-.71,1.12-.18,.42-.27,.87-.27,1.33,0,.9,.32,1.66,.96,2.29,.64,.63,1.41,.94,2.31,.94s1.67-.31,2.31-.94,.96-1.39,.96-2.29c0-.46-.09-.9-.27-1.33-.18-.42-.42-.79-.71-1.12-.3-.32-.64-.58-1.04-.77s-.81-.29-1.25-.29Z"/>
        <path class="cls-2" d="M80.13,74.47c0,1.69-.26,3.25-.77,4.67-.51,1.42-1.22,2.65-2.13,3.69-.91,1.04-1.99,1.85-3.23,2.42-1.24,.58-2.6,.87-4.06,.87s-2.81-.29-4.06-.87c-1.24-.58-2.32-1.38-3.23-2.42-.91-1.04-1.62-2.27-2.13-3.69-.51-1.42-.77-2.98-.77-4.67s.26-3.25,.77-4.67c.51-1.42,1.22-2.65,2.13-3.69,.91-1.04,1.99-1.85,3.23-2.44,1.24-.59,2.6-.88,4.06-.88s2.81,.29,4.06,.88c1.24,.59,2.32,1.4,3.23,2.44,.91,1.04,1.62,2.27,2.13,3.69s.77,2.98,.77,4.67Zm-7.38,0c0-1.49-.26-2.69-.79-3.62-.53-.92-1.2-1.38-2.02-1.38-.87,0-1.57,.46-2.1,1.38-.53,.92-.79,2.13-.79,3.62s.26,2.69,.79,3.6c.52,.91,1.22,1.37,2.1,1.37,.82,0,1.49-.46,2.02-1.37,.53-.91,.79-2.11,.79-3.6Z"/>
        <path class="cls-2" d="M89.86,70.2c-.98,0-1.88-.16-2.71-.48-.83-.32-1.56-.75-2.17-1.29-.62-.54-1.1-1.18-1.44-1.92-.35-.74-.52-1.54-.52-2.38s.17-1.64,.52-2.38c.35-.74,.83-1.38,1.44-1.92,.62-.54,1.34-.97,2.17-1.29,.83-.32,1.74-.48,2.71-.48s1.84,.16,2.67,.48c.83,.32,1.56,.75,2.17,1.29,.62,.54,1.1,1.18,1.46,1.92,.36,.74,.54,1.54,.54,2.38s-.18,1.64-.54,2.38c-.36,.74-.85,1.38-1.46,1.92-.62,.54-1.34,.97-2.17,1.29-.83,.32-1.72,.48-2.67,.48Zm-3.62,13.04l10.88-12.27,9.65-12.96,3.19,2.88-10.42,11.88-10.12,13.35-3.19-2.88Zm3.62-16.5c.51,0,.95-.26,1.31-.77,.36-.51,.54-1.13,.54-1.85s-.18-1.33-.54-1.85c-.36-.51-.8-.77-1.31-.77s-.95,.26-1.31,.77c-.36,.51-.54,1.13-.54,1.85s.18,1.33,.54,1.85,.79,.77,1.31,.77Zm16.5,19.38c-.97,0-1.88-.16-2.71-.48s-1.56-.75-2.17-1.29c-.62-.54-1.1-1.18-1.44-1.92-.35-.74-.52-1.54-.52-2.38s.17-1.64,.52-2.38c.35-.74,.83-1.38,1.44-1.92,.62-.54,1.34-.97,2.17-1.29,.83-.32,1.74-.48,2.71-.48s1.84,.16,2.67,.48c.83,.32,1.56,.75,2.17,1.29,.62,.54,1.1,1.18,1.46,1.92,.36,.74,.54,1.54,.54,2.38s-.18,1.64-.54,2.38c-.36,.74-.85,1.38-1.46,1.92-.62,.54-1.34,.97-2.17,1.29s-1.72,.48-2.67,.48Zm0-3.46c.51,0,.95-.26,1.31-.77,.36-.51,.54-1.13,.54-1.85s-.18-1.33-.54-1.85c-.36-.51-.79-.77-1.31-.77s-.95,.26-1.31,.77c-.36,.51-.54,1.13-.54,1.85s.18,1.33,.54,1.85c.36,.51,.79,.77,1.31,.77Z"/>
      </g>
    </g>
  </g>
</svg>