<?xml version="1.0" encoding="UTF-8"?>
<svg id="Layer_2" data-name="Layer 2" xmlns="http://www.w3.org/2000/svg" viewBox="0 0 337.22 317.53">
  <defs>
    <style>
      .cls-1 {
        fill: #e7a944;
      }

      .cls-2 {
        fill: #fff;
      }

      .cls-3 {
        fill: #f2d051;
      }

      .cls-4 {
        fill: #313b56;
      }

      .cls-5 {
        fill: #342046;
      }

      .cls-6 {
        fill: #da0066;
      }

      .cls-7 {
        fill: #23172e;
      }

      .cls-8 {
        fill: #62a4ec;
      }

      .cls-9 {
        opacity: .2;
      }

      .cls-10 {
        opacity: .3;
      }

      .cls-11 {
        opacity: .35;
      }

      .cls-12 {
        opacity: .5;
      }

      .cls-13 {
        opacity: .8;
      }

      .cls-14 {
        opacity: .7;
      }
    </style>
  </defs>
  <g id="Camada_2" data-name="Camada 2">
    <g>
      <g>
        <path class="cls-2" d="M40.06,33.19c2.27-3.72,3.39-8.18,2.91-12.85C41.81,9.01,31.68,.76,20.34,1.93,9.01,3.09,.76,13.22,1.92,24.56c1.16,11.33,11.3,19.58,22.63,18.42,3.15-.32,6.07-1.34,8.6-2.89l9.55,2.14-2.65-9.03Z"/>
        <g class="cls-12">
          <path class="cls-2" d="M20.75,5.87c10.59-1.09,20.12,6.04,22.28,16.22,0-.73-.03-1.46-.1-2.2C41.76,8.56,31.63,.31,20.29,1.48,8.96,2.64,.71,12.77,1.88,24.11c.08,.74,.19,1.47,.34,2.19,.04-10.41,7.93-19.33,18.52-20.42Z"/>
        </g>
        <path class="cls-5" d="M22.41,44.9c-5.14,0-10.08-1.75-14.13-5.04C3.63,36.08,.73,30.71,.12,24.74-1.15,12.43,7.84,1.38,20.15,.12c5.96-.61,11.81,1.13,16.46,4.92,4.65,3.78,7.55,9.15,8.16,15.12,.48,4.65-.47,9.23-2.76,13.28l2.43,8.28c.18,.62,.02,1.28-.42,1.75-.44,.47-1.1,.67-1.72,.53l-8.85-1.98c-2.69,1.52-5.62,2.45-8.72,2.77-.78,.08-1.56,.12-2.34,.12Zm.08-41.27c-.65,0-1.3,.03-1.96,.1C10.21,4.79,2.67,14.05,3.73,24.37c.51,5,2.94,9.5,6.84,12.67,3.9,3.17,8.79,4.64,13.8,4.12,2.81-.29,5.45-1.17,7.85-2.63,.4-.24,.88-.32,1.34-.22l6.54,1.47-1.78-6.07c-.14-.49-.07-1.02,.19-1.46,2.16-3.54,3.08-7.59,2.66-11.72-.51-5-2.94-9.5-6.84-12.67-3.39-2.76-7.53-4.22-11.84-4.22Z"/>
        <g class="cls-9">
          <path class="cls-5" d="M40.17,33c-5.65,4.78-13.44,6.87-21.17,4.95C10.43,35.81,4.12,29.28,1.84,21.36c-.05,1.05-.03,2.12,.08,3.2,1.16,11.33,11.3,19.58,22.63,18.42,3.15-.32,6.07-1.34,8.6-2.89l9.55,2.14-2.65-9.03c.04-.07,.08-.13,.12-.2Z"/>
        </g>
        <path class="cls-6" d="M29.04,16.66h0c-1.79-1.79-4.68-1.47-6.47,.32l-.28,.28-.28-.28c-1.79-1.79-4.68-2.11-6.47-.32h0c-1.79,1.79-1.79,4.68,0,6.47l.28,.28,5.61,5.61c.47,.47,1.23,.47,1.7,0l5.61-5.61,.28-.28c1.79-1.79,1.79-4.68,0-6.47Z"/>
      </g>
      <g>
        <g>
          <path class="cls-3" d="M269.7,132.44c-.5,4.56-1.28,9.12-2.33,13.65-2.41,10.41-6.3,20.65-11.75,30.46-31.43,56.56-102.76,76.93-159.32,45.5-45.03-25.02-67.12-75.35-58.39-123.37,2.24-12.29,6.49-24.42,12.89-35.95,10-17.99,24.03-32.31,40.34-42.47,2.62-1.64,5.31-3.17,8.04-4.59,14.73-7.64,30.95-12.09,47.53-13.02,.15,0,.29-.02,.44-.02,1.02-.05,2.03-.1,3.05-.12,2.02-.05,4.05-.05,6.07,0,13.76,.35,27.6,3.13,40.88,8.53,4.39,1.77,8.72,3.84,12.97,6.2,.91,.51,1.82,1.02,2.71,1.56,.54,.32,1.08,.64,1.6,.97,39.67,24.26,60.07,68.78,55.26,112.68Z"/>
          <g class="cls-12">
            <path class="cls-2" d="M37.92,103.93c2.24-12.29,6.49-24.42,12.89-35.95,10-17.99,24.03-32.31,40.34-42.47,2.62-1.64,5.31-3.17,8.04-4.59,14.73-7.64,30.95-12.09,47.53-13.02,.15,0,.29-.02,.44-.02,1.02-.05,2.03-.1,3.05-.12,2.02-.05,4.05-.05,6.07,0,13.76,.35,27.6,3.13,40.88,8.53,4.39,1.77,8.72,3.84,12.97,6.2,.91,.51,1.82,1.02,2.71,1.56,.54,.32,1.08,.64,1.6,.97,35.07,21.45,55.07,58.73,55.92,97.41,.93-40.54-19.27-80.25-55.92-102.66-.53-.33-1.06-.66-1.6-.97-.89-.53-1.8-1.05-2.71-1.56-4.24-2.36-8.58-4.43-12.97-6.2-13.28-5.4-27.13-8.19-40.88-8.53-2.02-.05-4.05-.05-6.07,0-1.02,.02-2.04,.07-3.05,.12-.15,0-.29,.02-.44,.02-16.58,.93-32.8,5.38-47.53,13.02-2.74,1.42-5.42,2.95-8.04,4.59-16.31,10.16-30.34,24.48-40.34,42.47-6.4,11.52-10.65,23.66-12.89,35.95-1.41,7.77-2.02,15.61-1.85,23.38,.14-6.05,.75-12.11,1.85-18.14Z"/>
          </g>
          <path class="cls-1" d="M96.31,222.04c56.56,31.43,127.88,11.06,159.31-45.5,5.45-9.8,9.34-20.05,11.75-30.45,1.06-4.53,1.83-9.09,2.33-13.65,.89-8.12,.91-16.27,.12-24.31-.04,.37-.08,.74-.12,1.11-.5,4.56-1.27,9.12-2.33,13.65-2.41,10.41-6.3,20.65-11.75,30.45-31.43,56.56-102.75,76.93-159.31,45.5-34.89-19.39-56.01-53.96-59.69-90.89-4.5,45.11,17.55,90.67,59.69,114.09Z"/>
          <ellipse class="cls-3" cx="179.51" cy="52.76" rx="10.22" ry="22.74" transform="translate(102.98 223.5) rotate(-82.24)"/>
          <path class="cls-1" d="M224.48,132.48c-3.2,14.28,1.18,25.83,9.78,25.81,8.6-.02,18.94-11.25,22.14-25.52s-1.96-26.2-10.56-26.17c-8.6,.02-18.17,11.61-21.37,25.89Z"/>
          <path class="cls-5" d="M217.8,122.81c-5.42,10.53-4.78,23.9,1.57,33.83,2.14,3.22,5.16,5.9,9.02,6.96,.28,.07,.44,.35,.37,.63-.06,.23-.28,.38-.51,.37-2.17-.07-4.32-.81-6.22-1.93-12.55-8.05-14.8-29.46-5.26-40.57,.48-.56,1.39,.05,1.04,.71h0Z"/>
          <ellipse class="cls-1" cx="100.02" cy="49.61" rx="11.64" ry="9.93" transform="translate(-2.97 6.5) rotate(-3.67)"/>
          <ellipse class="cls-3" cx="102.61" cy="52.95" rx="8.75" ry="7.06" transform="translate(-12 38.91) rotate(-20.31)"/>
          <path class="cls-5" d="M100.38,60.62c-5.23,.79-11.23-1.93-13.33-7.04-2.39-5.54,.86-11.77,5.99-14.3,7.2-3.89,18.25-.82,19.92,7.87,.37,2.01,.08,4.08-.82,5.9-.28,.59-.67,1.12-1.04,1.65-.16,.23-.47,.29-.7,.13-.22-.15-.28-.45-.15-.68,1.05-2.09,1.32-4.45,.65-6.53-2.02-6.53-10.76-8.4-16.29-5.34-6.4,3.34-7.04,11.14-.77,15.06,1.87,1.2,4.13,1.86,6.48,2.02,.75,.04,.79,1.15,.05,1.26h0Z"/>
          <path class="cls-5" d="M115.14,42.51c2.53,2.87,3.6,7.14,2.83,10.94-1.25,6.61-7.18,11.47-13.54,12.88-5.06,1.17-10.59,.45-15.01-2.31-4.4-2.6-7.63-7.59-7.29-12.76,.04-.61,.94-.63,1.01-.03,.62,4.57,3.65,8.33,7.66,10.36,9.02,4.85,23.08,.5,24.87-10.34,.37-2.76-.16-5.5-1.56-8.03-.36-.65,.54-1.29,1.03-.72h0Z"/>
          <path class="cls-5" d="M68.48,76.4c11.04,1.25,18.9,10.9,19.98,21.64,1.44,12.76-5.67,25.91-17.01,31.85-2.69,1.4-5.62,2.42-8.63,2.86-1.71,.3-3.45,.3-5.16,.23-.28-.01-.5-.25-.49-.53,0-.27,.23-.48,.49-.49,.44-.05,1.42-.15,1.84-.2,.36-.08,1.43-.25,1.81-.32,0,0,1.19-.3,1.19-.3,3.11-.8,6.11-2.21,8.77-4.01,13.19-8.76,19.02-28.69,8.82-41.78-2.97-3.79-7.15-6.46-11.85-7.72-.74-.18-.55-1.33,.23-1.24h0Z"/>
          <ellipse class="cls-1" cx="60.94" cy="104.5" rx="20.2" ry="16.74" transform="translate(-52.6 146.27) rotate(-79.95)"/>
          <path class="cls-3" d="M60.34,121.74c5.96,.07,12.01-3.98,15.12-10.8,4.14-9.07,1.49-19.61-5.92-23.53-1.05-.56-2.13-.95-3.24-1.18-4.37,1.78-8.29,5.52-10.67,10.72-4.2,9.22-2.05,19.8,4.7,24.79Z"/>
          <path class="cls-5" d="M44.79,97.17c3.06-7.29,10.9-12.89,19.03-12.05,8.86,.75,14.76,8.89,14.52,17.44-.13,10.16-8.14,20.02-18.49,20.94-6.02,.67-12.29-2.58-14.93-8.06-.28-.57,.53-1.03,.88-.51,2.7,4.12,7.57,6.61,12.47,6.23,9.3-.58,16.68-9.62,16.7-18.64,.1-11.95-11.26-18.2-21.48-12.31-3.1,1.74-5.68,4.4-7.57,7.54-.39,.67-1.43,.15-1.12-.57h0Z"/>
          <path class="cls-5" d="M199.49,99.08c1.51,9.07-1.05,18.83-6.87,26-12.18,15.29-35.02,16.72-50.43,5.52-7.45-5.34-13.04-13.33-15.1-22.25-.06-.27,.11-.55,.38-.61,.26-.06,.52,.09,.6,.33,2.85,8.27,8.45,15.43,15.71,20.22,16.64,11.02,40.05,7.61,50.21-10.35,1.06-1.86,1.92-3.83,2.58-5.88,1.35-4.09,1.89-8.47,1.67-12.84-.05-.76,1.11-.92,1.25-.13h0Z"/>
          <circle class="cls-1" cx="162.35" cy="99.25" r="23.49"/>
          <path class="cls-3" d="M141.6,107.27c2.18,8.03,9.4,14.45,18.85,15.75,12.57,1.73,24.33-6.28,26.26-17.89,.27-1.64,.34-3.26,.2-4.85-3.83-5.12-9.85-8.8-17.06-9.8-12.77-1.75-24.78,5.6-28.25,16.79Z"/>
          <path class="cls-5" d="M165.44,76.26c10.51,1.33,19.72,10.03,21.51,20.55,2.18,11.03-4.45,22.31-15.14,25.79-16.12,5.44-33.9-7.07-33.83-24.15,.03-5.26,1.94-10.52,5.48-14.4,.43-.47,1.16,.13,.79,.64-1.48,1.98-2.59,4.21-3.29,6.54-5.13,17.52,12.68,33.9,29.76,28.17,15.08-5.3,17.67-23.72,7.01-34.74-3.31-3.52-7.71-6.02-12.51-7.17-.77-.18-.56-1.34,.23-1.24h0Z"/>
          <g>
            <path class="cls-3" d="M96.36,166.57c-5.51,2.9-9.82,7.14-12.22,12.54-4.36,9.8-1.27,20.62,6.7,30.15,5.23,6.25,12.66,11.7,21.68,15.35,22.77,9.23,47.09,3.56,54.31-12.66,2.69-6.04,2.63-12.68,.32-19.13-3.89-10.87-17.31-14.15-31.61-19.94"/>
            <path class="cls-5" d="M84.71,179.37c-3.79,9.29-.24,19.58,5.77,27.08,12.15,15.2,33.01,23.2,52.23,20.5,9.55-1.41,19.2-6.28,23.65-15.21,.13-.25,.43-.35,.68-.23,.23,.12,.34,.4,.24,.64-.94,2.39-2.28,4.65-3.94,6.64-5.03,6.02-12.56,9.51-20.15,10.93-24.28,4.67-55.76-10.31-61.55-35.61-.49-2.57-.64-5.23-.32-7.83,.31-2.6,1.09-5.13,2.24-7.44,.15-.31,.53-.44,.84-.28,.29,.15,.42,.49,.3,.79h0Z"/>
            <ellipse class="cls-1" cx="125.49" cy="195.33" rx="24.56" ry="33.8" transform="translate(-95.44 266.69) rotate(-75.18)"/>
            <ellipse class="cls-3" cx="127.1" cy="202.19" rx="18.06" ry="28.65" transform="translate(-94.33 291.65) rotate(-79.84)"/>
            <path class="cls-5" d="M147.38,216.95c8.41-4.7,12.13-13.94,8.59-22.99-6.16-15.44-25.06-24.05-41.05-22.58-20.2,2.06-27.44,19.49-14.02,34.93,4.03,4.63,9.25,8.24,14.93,10.81,.25,.12,.37,.42,.25,.67-.11,.24-.39,.36-.63,.27-8.98-3.28-17.42-9.53-21.74-18.33-4.88-9.64-2.36-20.86,6.83-26.87,11.27-7.31,26.2-6,37.93-.53,5.9,2.8,11.33,6.82,15.34,12.02,6.3,7.89,8.56,19.33,1.84,27.69-2.05,2.58-4.74,4.58-7.68,5.99-.73,.34-1.27-.72-.59-1.11h0Z"/>
          </g>
          <g>
            <path class="cls-3" d="M197.85,55.34c4.11-2.71,7.17-6.37,8.65-10.8,2.68-8.04-.59-16.31-7.59-23.2-4.59-4.51-10.85-8.23-18.23-10.41-18.62-5.51-37.3,.82-41.74,14.13-1.65,4.95-1.09,10.18,1.22,15.07,3.9,8.25,12.91,15.08,24.6,18.54"/>
            <path class="cls-5" d="M205.9,44.34c2.15-7.55-1.44-15.23-6.72-20.61-12.63-13.11-37.24-18.13-52.69-7.36-3.08,2.22-5.6,5.25-7.06,8.85-.1,.26-.4,.39-.66,.28-.24-.1-.37-.36-.3-.6,.53-1.97,1.4-3.87,2.55-5.59,3.48-5.2,9.17-8.59,15.07-10.33,17.52-5.06,39.24,1.93,48.93,17.76,2.12,3.58,3.48,7.73,3.33,11.92-.06,2.09-.5,4.15-1.26,6.07-.13,.32-.49,.48-.82,.35-.3-.12-.46-.45-.38-.75h0Z"/>
            <ellipse class="cls-1" cx="172.73" cy="34.96" rx="19.41" ry="26.71" transform="translate(110.49 199.84) rotate(-80.76)"/>
            <ellipse class="cls-3" cx="170.94" cy="29.69" rx="14.27" ry="22.64" transform="translate(127.69 197.72) rotate(-85.42)"/>
            <path class="cls-5" d="M153.93,19.75c-6.11,4.33-8.27,11.8-4.8,18.51,5.57,10.57,18.67,15.63,30.18,14.85,9.05-.51,19.13-6.26,18.25-16.39-1.14-9.76-10.16-16.43-18.94-19.54-.6-.21-.33-1.12,.29-.97,9.76,2.39,19.93,9.56,21.43,20.21,1.17,8.69-5.18,15.8-13.04,18.43-7.44,2.64-15.77,2.12-23.12-.49-9.62-3.43-19.38-11.77-19.07-22.79,.14-2.7,.99-5.34,2.46-7.56,1.44-2.2,3.44-3.98,5.67-5.31,.69-.41,1.33,.59,.69,1.05h0Z"/>
          </g>
          <ellipse class="cls-3" cx="237.05" cy="131.61" rx="22.74" ry="11.85" transform="translate(36.25 313.8) rotate(-71.26)"/>
          <path class="cls-5" d="M255.25,114.09c-3.78-6.38-10.52-7.09-16.43-3.15-8.93,6.05-13.99,17.8-14.36,28.39-.38,8.09,3.41,18.55,13.27,16.49,8.6-2.2,14.43-10.62,17.77-18.46,.24-.59,1.13-.27,.95,.34-1.34,4.46-3.45,8.75-6.39,12.49-1.48,1.86-3.16,3.58-5.1,5.05-6.47,5.07-15.25,5.46-20.26-1.84-5.43-8.32-4.1-19.36-.66-28.15,2.74-6.64,7.08-12.87,13.35-16.62,5.52-3.33,12.69-3.53,17.04,1.81,.78,.95,1.41,1.99,1.92,3.07,.15,.31,.02,.69-.3,.84-.3,.14-.65,.03-.81-.25h0Z"/>
          <g class="cls-12">
            <path class="cls-2" d="M215.34,44.33c.58,14.16,23.73,25.77,32.72,62.58,3.81,15.61,16.55-2.21,4.02-31.5-11.61-27.14-37.15-41.07-36.74-31.08Z"/>
          </g>
          <g class="cls-12">
            <path class="cls-2" d="M180.62,25.2c3.29,4.16,13.54,5.6,22.65,11.67,9.73,6.49,16.69,.93,2.02-12.85-15.64-14.68-30.87-6.65-24.66,1.18Z"/>
          </g>
          <path class="cls-5" d="M153.04,238.99c-20.01,0-39.8-5.08-57.77-15.07-44.71-24.85-68.61-75.33-59.46-125.63,2.33-12.81,6.75-25.13,13.12-36.61,9.83-17.68,24.03-32.63,41.08-43.25,2.64-1.66,5.4-3.23,8.19-4.67,14.91-7.73,31.64-12.32,48.39-13.26h.21c.09-.02,.18-.02,.26-.03,1.09-.06,2.11-.1,3.09-.12,2-.05,4.08-.06,6.17,0,14.34,.36,28.35,3.29,41.64,8.69,4.49,1.82,8.93,3.94,13.2,6.31,.9,.5,1.84,1.03,2.77,1.59,.54,.31,1.09,.65,1.63,.99,19.57,11.97,35.17,29.21,45.11,49.87,9.73,20.21,13.59,42.64,11.16,64.87-.51,4.63-1.3,9.3-2.37,13.9-2.51,10.81-6.53,21.25-11.96,31.02-15.48,27.86-40.88,48.02-71.52,56.77-10.87,3.1-21.94,4.64-32.94,4.64Zm.29-234.38c-1.04,0-2.06,.01-3.07,.04-.94,.02-1.92,.06-2.99,.12h-.2c-.09,.02-.18,.02-.26,.03-16.12,.9-32.25,5.32-46.63,12.78-2.69,1.39-5.34,2.91-7.89,4.5-16.43,10.24-30.13,24.65-39.6,41.69-6.15,11.07-10.4,22.94-12.65,35.29-8.82,48.49,14.22,97.15,57.32,121.11,17.64,9.8,36.78,14.46,55.67,14.46,40.44,0,79.73-21.34,100.73-59.13,5.24-9.42,9.12-19.48,11.53-29.9,1.03-4.43,1.8-8.94,2.29-13.39,4.82-44.09-16.47-87.51-54.25-110.61-.53-.33-1.04-.64-1.57-.95-.9-.54-1.82-1.05-2.68-1.54-4.11-2.28-8.39-4.33-12.72-6.08-12.81-5.21-26.31-8.03-40.13-8.38-.97-.02-1.93-.03-2.89-.03Z"/>
        </g>
        <g>
          <path class="cls-2" d="M263.79,267.65c-1.3,5.4,1.93,9.12,10.62,10.91,8.69,1.78,10.35,6.48,10.61,7.36,.87,2.97,5.09,29.41-9.8,30.16-10.5,.53-13.87-17.03-13.87-17.03,0,0-26.41,5.16-41.81-38.27"/>
          <path class="cls-5" d="M246.93,291.18c7.84,0,15.58-4.59,23-13.67,.5-.61,.41-1.52-.2-2.02-.61-.5-1.52-.41-2.02,.2-7.03,8.59-14.21,12.84-21.33,12.6-9.93-.31-16.5-9.3-16.56-9.39-.46-.64-1.36-.79-2-.33-.64,.46-.79,1.36-.33,2,.3,.42,7.47,10.23,18.81,10.59,.21,0,.42,0,.63,0Z"/>
          <g class="cls-11">
            <path class="cls-5" d="M275.22,316.08c-10.5,.53-13.87-17.03-13.87-17.03,0,0-26.41,5.16-41.81-38.27l28.95,4.5c2.11,20.98,17.17,26.53,17.17,26.53,0,0-2.07,19.05,12.75,20.4,3.99,.36,5.25-4.21,6.72-5.36-1.38,4.98-4.28,8.95-9.92,9.23Z"/>
          </g>
          <path class="cls-5" d="M274.74,317.53c.18,0,.36,0,.55-.01,3.68-.18,6.62-1.78,8.71-4.74,5.91-8.32,3.02-25.16,2.4-27.26-.44-1.49-2.58-6.49-11.7-8.36-4.65-.95-7.67-2.48-8.97-4.53-.81-1.27-.99-2.79-.54-4.64,.18-.77-.29-1.55-1.06-1.73-.77-.18-1.55,.29-1.73,1.06-.63,2.61-.32,4.91,.91,6.85,1.76,2.77,5.3,4.67,10.82,5.8,7.75,1.59,9.29,5.58,9.52,6.36,.54,1.85,3.19,17.49-1.98,24.79-1.59,2.23-3.72,3.39-6.52,3.53-9.13,.44-12.36-15.7-12.39-15.87l-.27-1.41-1.41,.27c-.06,.01-6.38,1.14-14.42-2.82-7.48-3.69-18.02-12.68-25.76-34.52-.26-.75-1.09-1.14-1.83-.87-.75,.26-1.14,1.09-.87,1.83,8.11,22.9,19.38,32.34,27.4,36.24,6.63,3.22,12.16,3.31,14.64,3.13,1.04,4.2,4.98,16.9,14.51,16.9Z"/>
          <g>
            <path class="cls-2" d="M248.71,201.03c.9,.21,21.98-.68,33.72,4.45,9.79,4.28,14.58,45.4,7.61,52.75-6.46,6.81-26.59,7.02-26.59,7.02l-14.73-64.22Z"/>
            <path class="cls-2" d="M248.71,201.03l2.39,10.44,12.34,53.78s9.76-.1,17.87-2.46c3.54-1.03,6.75-2.49,8.72-4.55,6.97-7.35,2.18-48.48-7.61-52.75-11.74-5.13-32.82-4.24-33.72-4.45Z"/>
            <g class="cls-11">
              <path class="cls-5" d="M251.1,211.47l12.34,53.78s0,0,.02,0c.05,0,.19,0,.42,0,.05,0,.1,0,.15,0,0,0,.02,0,.03,0,.05,0,.1,0,.16,0,.13,0,.28-.01,.44-.02,.04,0,.08,0,.12,0,.04,0,.08,0,.12,0,.05,0,.1,0,.15,0,.53-.02,1.17-.06,1.9-.11,.09,0,.18-.01,.27-.02,.28-.02,.56-.04,.86-.06,.1,0,.2-.02,.3-.02,.12,0,.24-.02,.36-.03,.15-.02,.3-.03,.45-.04,.05,0,.09,0,.13-.01,.11-.01,.22-.02,.34-.03,.32-.03,.64-.06,.97-.1,0,0,.02,0,.03,0,.23-.02,.46-.05,.7-.08,0,0,.01,0,.02,0,.17-.02,.34-.04,.51-.06,.11-.01,.22-.03,.33-.04,.41-.05,.83-.11,1.26-.17,.27-.04,.55-.08,.83-.13,.25-.04,.51-.08,.77-.12,.26-.04,.51-.09,.77-.13,.26-.05,.52-.1,.78-.14,.26-.05,.52-.1,.78-.16,.26-.05,.52-.11,.78-.17t0,0c.26-.06,.52-.12,.78-.18,.26-.06,.52-.13,.78-.19,.04,0,.08-.02,.12-.03,.22-.06,.44-.11,.65-.17,.26-.07,.51-.14,.77-.22,3.54-1.03,6.75-2.49,8.72-4.55,3.64-3.84,4.07-16.87,2.27-29.06,.02,7.27-.99,13.4-3.3,15.84-.81,.85-1.83,1.6-2.99,2.26-1.36,.77-2.77,1.34-4.2,1.73-1.66-14.64-8.18-33.59-15.04-35.7-3.97-1.22-8.85-1.7-13.65-1.8-.67-.01-1.34-.02-2-.02Z"/>
            </g>
            <path class="cls-5" d="M246.8,199.12l2.16,.5c.23,.02,.96,.02,1.74,.02,6.08,.04,22.24,.13,32.3,4.52,5.57,2.43,8.57,13.51,9.86,19.9,2.73,13.48,2.81,30.31-1.79,35.16-6.8,7.17-26.77,7.46-27.61,7.46h-1.16s-15.5-67.56-15.5-67.56Zm17.78,64.66c4.28-.17,19.29-1.13,24.41-6.54,3.42-3.61,3.91-18.54,1.06-32.61-1.95-9.65-5.1-16.48-8.2-17.84-9.52-4.16-25.81-4.25-31.17-4.28-.06,0-.11,0-.16,0l14.06,61.27Zm-15.55-64.15s0,0-.01,0h.01Z"/>
            <path class="cls-5" d="M283.33,205.19c-1.25,.57-2.46,1.16-3.67,1.77-1.21,.61-2.42,1.23-3.61,1.89-1.19,.65-2.37,1.32-3.53,2.05-1.16,.73-2.31,1.48-3.4,2.36-.35,.28-.41,.8-.12,1.15,.27,.34,.76,.4,1.12,.15h.01c1.04-.76,2.18-1.42,3.34-2.06,1.16-.64,2.35-1.23,3.54-1.8,1.2-.57,2.41-1.12,3.63-1.65,1.22-.53,2.46-1.05,3.68-1.53h0c.65-.26,.97-1,.72-1.65s-.99-.97-1.64-.72c-.02,0-.04,.02-.06,.03Z"/>
            <path class="cls-2" d="M292.93,230.85l-11.06,3.02c-.99,.27-1.67,1.17-1.66,2.19,.05,3.75,.61,12.4,4.67,14.5,3.37,1.75,8.06,.55,10.39-2.34,2.6-3.24,1.3-11.57,.45-15.66-.26-1.27-1.54-2.05-2.79-1.71Z"/>
            <g class="cls-11">
              <path class="cls-5" d="M280.21,236.06c.05,3.75,.61,12.39,4.67,14.5,3.37,1.75,8.06,.56,10.39-2.34,1.6-1.99,1.72-5.91,1.38-9.58-.16,1.9-.67,3.51-1.47,4.66-4.59,6.59-10.07,.93-10.07,.93,0,0-.43,1.72-.99,1.92-2.37,.85-3.35-6.9-3.76-10.91-.1,.26-.15,.53-.15,.82Z"/>
            </g>
            <path class="cls-5" d="M284.22,251.83c-4.59-2.38-5.38-10.89-5.44-15.76-.02-1.67,1.09-3.15,2.71-3.6l11.06-3.02c.98-.27,2.03-.12,2.9,.41,.86,.53,1.48,1.4,1.68,2.39,1.2,5.78,2.04,13.39-.74,16.85-1.9,2.36-4.99,3.69-7.99,3.69-1.46,0-2.9-.31-4.17-.97Zm9.08-19.6l-11.06,3.02c-.36,.1-.6,.42-.6,.79,.07,5.46,1.13,11.81,3.89,13.24,2.69,1.39,6.63,.5,8.61-1.96,1.57-1.96,1.63-7.37,.17-14.47-.06-.3-.26-.46-.37-.53-.08-.05-.23-.12-.42-.12-.07,0-.14,0-.22,.03Z"/>
            <path class="cls-5" d="M291.09,249.83s-.18-.05-.29-.09c-.12-.05-.24-.09-.36-.15-.24-.11-.49-.25-.73-.4-.47-.31-.93-.66-1.34-1.08-.83-.82-1.52-1.84-2.05-2.95-.53-1.11-.9-2.32-1.23-3.57-.16-.62-.3-1.25-.4-1.88-.1-.62-.18-1.29-.16-1.84v-.05c.01-.21-.15-.38-.36-.39-.19,0-.36,.13-.39,.32-.12,.75-.09,1.39-.07,2.07,.03,.67,.1,1.34,.19,2,.18,1.31,.44,2.65,.88,3.97,.45,1.31,1.1,2.58,2.01,3.72,.44,.57,.97,1.09,1.54,1.56,.29,.24,.6,.46,.93,.66,.16,.1,.33,.2,.51,.29,.19,.09,.34,.17,.62,.27l.32,.11c.69,.23,1.43-.13,1.67-.82,.23-.69-.13-1.43-.82-1.67-.16-.06-.33-.08-.49-.07Z"/>
          </g>
          <path class="cls-2" d="M216.74,220.59s-4.29-1.14-10.43-4.27c-12.27-6.26-31.93-20.48-39.46-49.45-.98-3.77-11.06-9.38-5.8-14.18,1.6-1.46,3.95-.92,3.95-.92,0,0-2.66-2.67-.51-5.69,3.4-4.79,12.05,1.51,12.05,1.51,0,0-1.79-4.73-1.17-8.22,.44-2.44,2.85-3.8,4.46-3.76,4.56,.14,10.15,9.46,13.66,14.84,3.32,5.07,4.6,10.36,5.93,15.8,2.08,8.48,4.28,17.32,14.54,26.23,3.44,2.98,7.77,5.97,13.31,8.96l-7.1,12.9-3.43,6.23Z"/>
          <g class="cls-11">
            <path class="cls-5" d="M216.74,220.59s-4.29-1.14-10.43-4.27c-12.27-6.26-31.93-20.48-39.46-49.45-.83-3.19-8.17-7.7-7.23-11.91,1.65-1.49,6.7,6.85,8.41,8.21,3.32,2.65,5.11,.7,5.69-.24,2.2-3.56-11.12-11.51-9.89-14.93,1.57-4.36,2.95,5.06,13.55,9.76,3.35,1.49,5.95-2.33,5.95-1.99,.2,10.25-8.86,13.4-7.39,20.67,4.38,21.71,22.83,26.36,33.22,31.66,6.13,3.13,10.43,4.27,10.43,4.27l3.43-6.23,2.97-5.39c.42,.24,.85,.47,1.28,.71l-7.1,12.9-3.43,6.23Z"/>
          </g>
          <path class="cls-5" d="M216.74,222.03c.63,0,1.22-.42,1.39-1.07,.2-.77-.25-1.55-1.02-1.76-.09-.03-9.6-2.63-20.33-10.41-9.86-7.16-22.82-20.3-28.54-42.28-.42-1.62-1.91-3.23-3.49-4.95-1.81-1.96-3.85-4.18-3.78-5.94,.03-.65,.37-1.26,1.04-1.87,1.01-.92,2.66-.58,2.67-.58,.62,.13,1.26-.16,1.57-.72,.3-.56,.21-1.25-.24-1.7-.17-.18-1.74-1.9-.36-3.85,.46-.65,1.04-1.01,1.85-1.14,2.74-.45,6.84,2,8.19,2.98,.51,.37,1.21,.37,1.72-.02,.5-.38,.7-1.06,.47-1.65-.02-.04-1.64-4.41-1.1-7.46,.31-1.74,2.12-2.6,3-2.58,3.4,.1,8.47,7.96,11.5,12.65,.35,.54,.68,1.06,1,1.55,3.15,4.82,4.39,9.87,5.7,15.22,2.75,11.25,5.87,23.99,28.59,36.25,.7,.38,1.57,.12,1.94-.58,.38-.7,.12-1.57-.58-1.94-21.6-11.65-24.43-23.22-27.17-34.4-1.31-5.35-2.66-10.88-6.09-16.11-.32-.48-.65-1-.99-1.53-4.88-7.55-9.29-13.82-13.83-13.96-2.41-.07-5.36,1.89-5.91,4.94-.31,1.75-.1,3.74,.24,5.4-2.04-1.02-4.74-1.97-7.15-1.58-1.57,.26-2.82,1.03-3.72,2.31-1.32,1.85-1.28,3.69-.79,5.15-.81,.18-1.68,.54-2.45,1.23-1.25,1.14-1.91,2.44-1.97,3.87-.13,2.95,2.35,5.63,4.53,8.01,1.27,1.38,2.58,2.8,2.82,3.72,5.94,22.86,19.45,36.52,29.73,43.96,11.15,8.06,20.78,10.68,21.18,10.79,.12,.03,.25,.05,.37,.05Z"/>
          <path class="cls-2" d="M317.38,291.73c-8.91,4.52-14.06-7.52-14.06-7.52,0,0-14.32,15.58-29.81,13.55-13.01-1.7-24.26-15.45-24.26-15.45,0,0-55.16-7.04-42.94-65.99,.84-4.04,1.99-8.33,3.51-12.87,1.16-3.49,2.54-7.14,4.14-10.95,.84-1.99,1.74-4.02,2.7-6.1l42.51,13.51,4.9,1.56,1.22,.39c-.04,.29-.09,.58-.13,.87-1.09,8.28,.54,15.58,2.94,21.85,3.04,7.97,7.31,14.28,8.82,18.84,.83,2.51,1.33,4.82,1.63,6.75,.54,3.45,.44,5.7,.44,5.7,1.2,2.18,5.18,8.7,11.19,7.6,2.08-.38,3.95-1.73,5.76-3.3,3.2-2.77,6.19-6.23,9.85-6.22,5.27,0,9.71,3.87,12.67,8.82,1.85,3.09,3.13,6.6,3.68,9.86,.95,5.62,1.76,15.81-4.75,19.11Z"/>
          <g class="cls-11">
            <path class="cls-5" d="M319.03,290.63c-.49,.42-1.04,.79-1.65,1.1-8.91,4.52-14.06-7.52-14.06-7.52,0,0-14.32,15.58-29.81,13.55-13.01-1.7-24.26-15.45-24.26-15.45,0,0-53.68-6.85-43.39-63.63-3.68,41.28,29.16,52.66,40.59,55.36,2.46,.58,4.71,1.84,6.49,3.64,4.08,4.13,12.4,11.36,21.6,12.56,15.49,2.02,26.46-14.49,33.09-13.5,1.55,.23-2.01,16.5,11.41,13.88Z"/>
          </g>
          <path class="cls-5" d="M276.36,299.38c12.12,0,22.82-9.13,26.59-12.76,1.27,2.18,3.78,5.68,7.45,7.01,2.47,.9,5.04,.69,7.63-.62,5.43-2.75,7.34-9.88,5.52-20.63-1.65-9.76-8.74-19.87-17.76-19.88h0c-3.57,0-6.41,2.59-9.15,5.1-2.16,1.97-4.39,4.02-6.71,4.44-4.48,.82-7.8-3.6-9.49-6.55,0-1.45-.13-6.43-2.15-12.54-.74-2.25-2.08-4.82-3.63-7.79-4.25-8.15-10.07-19.32-7.95-33.1,.12-.78-.42-1.52-1.2-1.64-.78-.12-1.52,.42-1.64,1.2-2.26,14.71,3.81,26.36,8.24,34.86,1.49,2.86,2.78,5.33,3.45,7.36,2.18,6.61,2,11.89,2,11.94l-.02,.4,.19,.35c3.39,6.14,8.02,9.17,12.71,8.32,3.14-.57,5.68-2.9,8.13-5.15,2.44-2.24,4.75-4.35,7.21-4.35h0c7.4,0,13.52,9.08,14.94,17.49,.9,5.36,1.59,14.76-3.99,17.59-1.88,.95-3.63,1.11-5.35,.49-4.22-1.53-6.73-7.24-6.75-7.29l-.88-2.03-1.5,1.62c-.14,.15-14.01,15-28.57,13.1-12.28-1.61-23.22-14.81-23.33-14.94l-.36-.44-.57-.07c-.26-.03-26.18-3.6-37.79-24.66-9.3-16.87-7.18-40.16,6.32-69.23,.33-.72,.02-1.57-.7-1.91-.72-.33-1.57-.02-1.91,.7-13.91,29.95-16,54.13-6.21,71.85,11.5,20.82,35.29,25.38,39.36,26.01,2.1,2.44,12.57,13.93,24.82,15.54,1.02,.13,2.03,.2,3.03,.2Z"/>
          <path class="cls-2" d="M193.93,154.27c-1.12-6.51-7.58-10.68-9.06-10.99-1.13-.24-5.01,2.06-3.31,5.15,1.7,3.09,3.84,3.93,3.38,4.93-.46,1-3.7,3.87-2.4,8.56"/>
          <path class="cls-5" d="M195.35,154.03c-.3-1.73-.95-3.38-1.83-4.85-.87-1.48-1.96-2.78-3.18-3.94-.61-.58-1.25-1.12-1.93-1.62-.69-.5-1.38-.97-2.23-1.37-.24-.1-.42-.2-.76-.3l-.23-.07c-.1-.02-.24-.03-.36-.04-.28-.02-.43,0-.6,.03-.66,.12-1.12,.32-1.56,.57-.88,.48-1.64,1.15-2.23,2.05-.16,.21-.26,.49-.39,.73-.1,.26-.19,.54-.25,.83-.1,.58-.11,1.19,.02,1.75,.07,.28,.13,.56,.25,.8,.1,.24,.22,.53,.33,.69,.21,.38,.44,.75,.68,1.11,.49,.72,1.04,1.4,1.6,2,.27,.3,.55,.59,.73,.81,.03,.04,.1,.12,.1,.13,.02,.03,.05,.06,.03,.03,.01,0-.05-.09-.04-.17-.03-.13,0-.28,.02-.39,.07-.17,.03-.08,.03-.08,0,.02-.07,.11-.1,.16l-.31,.46c-.23,.32-.45,.7-.67,1.07-.43,.76-.8,1.59-1.01,2.47-.22,.88-.27,1.8-.16,2.69,.09,.89,.41,1.72,.8,2.46,.13,.24,.42,.33,.66,.2,.16-.08,.25-.24,.26-.41v-.05c.03-.77,.06-1.49,.21-2.17,.15-.68,.36-1.31,.64-1.91,.29-.6,.63-1.17,1.05-1.72,.21-.28,.42-.55,.66-.86l.37-.49c.08-.11,.13-.18,.22-.32,.09-.18,.17-.24,.28-.61,.1-.29,.11-.64,.08-.96-.05-.27-.15-.57-.24-.72-.1-.21-.19-.33-.28-.46-.1-.15-.17-.22-.26-.33-.33-.37-.6-.64-.87-.91-.52-.53-.99-1.03-1.39-1.6-.94-1.34-1.12-1.86-.61-2.7,.44-.79,2.03-1.68,2.1-1.19,.56,.27,1.18,.67,1.75,1.09,.58,.42,1.13,.89,1.65,1.39,2.1,1.98,3.69,4.49,4.16,7.19h0c.14,.79,.88,1.31,1.66,1.17,.78-.14,1.3-.88,1.17-1.66h0Z"/>
          <g>
            <path class="cls-2" d="M203.3,224.19l6.56,25.5,14.22,7.67,7.52,4.06s7.01,.22,8.72,.25c2.31,.04,2.52-2.69,2.15-4.41-.62-2.94-.91-5.73-1.02-8.34-.18-4.2,.11-7.92,.23-11,.1-2.53-1.52-4.82-3.95-5.55-14.51-4.34-28.15-10.15-28.15-10.15l-6.28,1.97Z"/>
            <path class="cls-5" d="M240.29,263.1c-1.69-.03-8.45-.24-8.74-.25-.22,0-.44-.07-.64-.17l-21.74-11.73c-.35-.19-.61-.52-.71-.91l-6.56-25.5c-.19-.74,.23-1.5,.96-1.73l6.28-1.97c.33-.1,.68-.08,.99,.05,.14,.06,13.74,5.82,28,10.09,3.05,.91,5.1,3.79,4.97,6.98-.03,.68-.06,1.39-.1,2.13-.23,4.63-.51,10.39,.86,16.86,.32,1.51,.27,3.6-.82,4.93-.66,.8-1.58,1.22-2.68,1.22-.03,0-.05,0-.08,0Zm-35.26-37.96l6.06,23.58,20.89,11.27c1.42,.04,6.9,.21,8.36,.24,.35,0,.44-.11,.5-.17,.34-.41,.44-1.51,.23-2.51-1.44-6.83-1.15-12.8-.92-17.59,.04-.73,.07-1.43,.1-2.1,.07-1.89-1.13-3.58-2.93-4.12-12.89-3.86-25.23-8.92-27.81-9.99l-4.48,1.4Z"/>
            <g class="cls-10">
              <path class="cls-5" d="M224.08,257.36l7.52,4.06s7.01,.22,8.72,.25c1.76,.03,2.3-1.56,2.3-3.07,0-.47-.06-.93-.14-1.34-.62-2.94-.91-5.73-1.02-8.34-.73,.86-1.24-.57-3.39-2.38-2.55-2.15-2.92-5.23-4.4-6.54-4.3-3.82-8.49,11.23-9.58,17.36Z"/>
            </g>
            <path class="cls-2" d="M207.31,240.68c-.09,2.14-.44,4.76-.44,4.76,0,0,4.31,.6,4.66,.62,1.16,.05,2.21-2.39,2.34-5.45,.13-3.06-.7-5.58-1.86-5.63-.85-.04-4.3-.56-4.3-.56,0,0-.36,5.44-.39,6.26Z"/>
            <ellipse class="cls-2" cx="207.35" cy="239.93" rx="5.55" ry="2.8" transform="translate(-41.35 436.68) rotate(-87.52)"/>
            <path class="cls-2" d="M203.21,225.39c.26,2.33,.66,6.04,1.21,9.9,.78,5.53,1.84,11.39,3.17,13.99,2.32,4.52,15.31,9.77,24.01,12.14,2.28,.62,4.48-1.13,4.03-3.45-.74-3.8-1.2-7.47-1.5-10.63-.28-3-.41-5.54-.47-7.33-.05-1.64-1.19-3.05-2.79-3.45-13.86-3.5-22.39-9.26-25.97-12.1-.73-.58-1.79,.01-1.68,.94Z"/>
            <g class="cls-10">
              <path class="cls-5" d="M205.54,242.14c.48,2.43,1.01,4.61,1.61,6.15,.14,.37,.29,.7,.43,.99,2.32,4.52,15.31,9.77,24.01,12.14,2.28,.62,4.48-1.13,4.03-3.45-.74-3.8-1.2-7.47-1.5-10.63-1.4,2.16-5.38,6.41-14.38,4.7-2.33-.45-4.45-1.67-6.35-3.34,.74-.87,1.31-2.74,1.4-4.93,.13-3.06-.7-5.58-1.86-5.63-.71-.03-3.24-.4-4.05-.52-.12-.04-.24-.06-.37-.07-.82-.04-1.59,.63-2.15,1.72-.4,.78-.69,1.77-.82,2.88Z"/>
            </g>
            <g class="cls-10">
              <path class="cls-5" d="M205.54,242.14c.13-1.1,.42-2.1,.82-2.88-.73-1.35-1.38-2.7-1.94-3.97,.32,2.31,.7,4.68,1.12,6.85Z"/>
            </g>
            <path class="cls-5" d="M231.22,262.8c-5.92-1.61-21.93-7.05-24.91-12.87-2.31-4.51-3.76-17.55-4.46-23.82l-.06-.57c-.11-1,.38-1.96,1.26-2.45,.88-.49,1.95-.4,2.74,.23,3.74,2.96,12.01,8.44,25.43,11.83,2.2,.56,3.8,2.53,3.87,4.8h0c.11,3.46,.52,10.36,1.95,17.74,.3,1.53-.18,3-1.3,4.05-.87,.81-2.01,1.24-3.19,1.24-.44,0-.88-.06-1.32-.18Zm1-22.76c-.03-1-.73-1.86-1.7-2.11-13.12-3.32-21.56-8.6-25.78-11.79,.65,5.8,2.1,18.52,4.13,22.48,1.89,3.68,13.46,8.79,23.11,11.41,.67,.18,1.34,.03,1.81-.39,.22-.21,.58-.67,.44-1.4-1.47-7.58-1.88-14.65-2-18.19h0Z"/>
            <g>
              <path class="cls-8" d="M207.31,240.68c-.09,2.14-.44,4.76-.44,4.76,0,0,4.31,.6,4.66,.62,1.16,.05,2.21-2.39,2.34-5.45,.13-3.06-.7-5.58-1.86-5.63-.85-.04-4.3-.56-4.3-.56,0,0-.36,5.44-.39,6.26Z"/>
              <g class="cls-13">
                <path class="cls-2" d="M207.71,234.42s-.36,5.44-.39,6.26c-.09,2.13-.44,4.76-.44,4.76,0,0,.09,.01,.23,.03,.09-.87,.18-1.92,.22-2.86,.04-.82,.39-6.26,.39-6.26,0,0,3.46,.52,4.31,.56,.94,.04,1.67,1.71,1.84,3.98,0-.09,0-.18,.01-.28,.13-3.06-.7-5.58-1.86-5.63-.85-.04-4.3-.56-4.3-.56Z"/>
              </g>
              <g class="cls-10">
                <path class="cls-5" d="M207.25,241.69c-.13,1.87-.38,3.75-.38,3.75,0,0,4.31,.6,4.66,.62,1.16,.05,2.21-2.39,2.34-5.45,.04-1.03-.02-2-.17-2.84-.29,2.59-1.24,4.52-2.27,4.48-.28-.01-3.05-.4-4.18-.55Z"/>
              </g>
              <path class="cls-5" d="M211.49,247.06c-.36-.02-3.44-.44-4.75-.63-.54-.08-.92-.58-.85-1.12,0-.03,.34-2.61,.43-4.67h0c.04-.82,.38-6.06,.39-6.28,.02-.28,.15-.54,.37-.71,.22-.17,.5-.25,.77-.21,.95,.14,3.55,.52,4.2,.55,.58,.03,1.66,.37,2.32,2.37,.39,1.18,.56,2.7,.5,4.3-.13,3.11-1.22,6.4-3.3,6.4-.03,0-.06,0-.09,0Zm-2.86-11.49c-.11,1.63-.3,4.58-.32,5.16-.06,1.36-.22,2.89-.33,3.87,1.65,.23,3.24,.44,3.56,.47,.35-.18,1.22-1.71,1.34-4.49,.12-2.79-.61-4.39-.95-4.59-.62-.03-2.21-.25-3.3-.41Z"/>
              <ellipse class="cls-8" cx="207.35" cy="239.93" rx="5.55" ry="2.8" transform="translate(-41.35 436.68) rotate(-87.52)"/>
              <g class="cls-13">
                <path class="cls-2" d="M204.55,239.81c0,.2-.01,.4,0,.59,.43-2.3,1.59-3.95,2.86-3.89,1.45,.06,2.54,2.29,2.57,5.08,.09-.48,.15-1,.17-1.53,.13-3.06-1.01-5.6-2.56-5.66-1.55-.07-2.91,2.36-3.04,5.42Z"/>
              </g>
              <g class="cls-10">
                <path class="cls-5" d="M204.54,240.07c-.06,2.94,1.06,5.33,2.57,5.4,1.55,.07,2.9-2.36,3.04-5.42,.07-1.6-.21-3.06-.71-4.09,0,.09,0,.17,0,.26-.13,3.06-1.49,5.49-3.04,5.42-.74-.03-1.38-.62-1.84-1.56Z"/>
              </g>
              <path class="cls-5" d="M207.07,246.47c-2.16-.09-3.67-2.97-3.51-6.7h0c.07-1.63,.47-3.17,1.12-4.33,.77-1.37,1.82-2.1,2.96-2.05,2.16,.09,3.67,2.97,3.51,6.7-.16,3.66-1.86,6.37-3.97,6.37-.04,0-.07,0-.11,0Zm-.66-10.05c-.49,.88-.81,2.13-.86,3.44-.12,2.73,.89,4.59,1.61,4.62,.72,.02,1.88-1.73,2-4.47,.12-2.73-.89-4.59-1.61-4.62,0,0-.01,0-.02,0-.33,0-.76,.39-1.12,1.03Z"/>
            </g>
            <path class="cls-5" d="M221.71,259.1s.08,0,.12,0c.55-.07,.93-.57,.87-1.11l-1.25-10.09,3.11-1.07c.41-.14,.68-.52,.67-.95l-.12-11.34c0-.55-.45-.99-1-.99h-.01c-.55,0-.99,.46-.99,1.01l.11,10.62-3.19,1.1c-.45,.15-.72,.6-.66,1.07l1.35,10.89c.06,.5,.49,.87,.99,.87Z"/>
          </g>
          <path class="cls-5" d="M277.39,299.35c.18,0,.37-.04,.55-.11,15.44-6.42,12.75-34.61,12.62-35.81-.08-.79-.78-1.36-1.57-1.28-.79,.08-1.36,.78-1.28,1.57,.03,.27,2.6,27.27-10.87,32.87-.73,.3-1.08,1.14-.77,1.88,.23,.55,.76,.88,1.33,.88Z"/>
          <path class="cls-5" d="M186.98,199.66c10.11,0,16.87-10.87,19.26-17.51,.27-.75-.12-1.57-.86-1.84-.75-.27-1.57,.12-1.84,.86-.03,.08-1.88,5.11-5.43,9.42-4.54,5.53-9.66,7.37-15.22,5.48-.75-.26-1.57,.15-1.82,.9-.26,.75,.15,1.57,.9,1.82,1.75,.6,3.42,.86,5.01,.86Z"/>
          <path class="cls-5" d="M164.02,152.55c.52,.87,1.23,1.63,2.01,2.28,.77,.65,1.63,1.16,2.44,1.63,.81,.47,1.6,.9,2.37,1.39,.77,.48,1.51,1.02,2.26,1.61,.08,.06,.19,.05,.26-.03,.04-.05,.05-.13,.02-.19-.39-.89-.93-1.72-1.55-2.49-.63-.77-1.34-1.46-2.03-2.09-.7-.64-1.35-1.25-1.97-1.84-.63-.59-1.2-1.2-1.84-1.8l-.03-.02c-.51-.47-1.3-.44-1.77,.07-.39,.42-.44,1.03-.16,1.5Z"/>
          <path class="cls-5" d="M175.34,147.93c.06,.45,.15,.76,.27,1.12,.11,.34,.25,.67,.4,1,.3,.65,.68,1.25,1.06,1.84,.39,.59,.81,1.16,1.25,1.71,.45,.55,.92,1.08,1.45,1.58,.08,.07,.2,.07,.27,0,.04-.04,.06-.1,.05-.16-.11-.72-.28-1.4-.44-2.08-.17-.67-.35-1.34-.54-1.99-.19-.65-.37-1.3-.6-1.92-.11-.31-.23-.62-.36-.92-.12-.29-.27-.62-.4-.82l-.12-.18c-.37-.58-1.14-.75-1.72-.38-.42,.27-.63,.75-.56,1.22Z"/>
          <path class="cls-2" d="M279.22,253.11c-12.96,15.5-42.64,6.41-41.52-3.88,.38-3.48,3.7-4.37,3.7-4.37,0,0,24.07,10.23,36.76-2.26,0,0,5.55,5.14,1.06,10.51Z"/>
          <g class="cls-10">
            <path class="cls-5" d="M279.22,253.11c-12.96,15.49-42.64,6.41-41.52-3.88,.15-1.38,.77-2.36,1.45-3.03,1.8,11.44,32.5,16.71,40.92,.73,.13-.24,.34-.42,.49-.63,.67,1.9,.74,4.33-1.34,6.81Z"/>
          </g>
          <path class="cls-5" d="M245.76,260.13c-6.39-2.72-9.94-6.86-9.48-11.06,.48-4.41,4.58-5.55,4.75-5.6,.31-.08,.64-.06,.93,.07,.23,.1,23.34,9.7,35.19-1.96,.55-.54,1.42-.55,1.98-.03,2.27,2.1,5.43,7.41,1.18,12.49-5.22,6.24-13.07,8.85-20.86,8.85-4.8,0-9.58-1-13.7-2.75Zm-4.38-13.74c-.7,.31-2.05,1.15-2.25,2.99-.31,2.83,2.66,5.94,7.75,8.11,9.58,4.08,23.78,3.61,31.24-5.3h0c2.58-3.09,1.08-6.05-.06-7.55-12.45,10.64-33.01,3.21-36.68,1.76Z"/>
          <path class="cls-2" d="M329.68,257.04s-.61,2.38-2.59,3.54c-.99,.58-2.4,1.05-4.01,1.42-1.43,.33-3.02,.58-4.62,.76-3.53,.41-7.11,.5-9.16,.41-4.31-.19-8.87-1.28-13.36-3-6.14-2.36-12.18-5.91-17.39-9.99-4.89-3.84-9.04-8.16-11.83-12.41l-1.05-5.26-1.43-7.18-5.07-25.41-1.15-5.77c.1,.13,2.34,3.05,6.05,7.33,.35,.41,.72,.83,1.1,1.26,4.23,4.81,10.05,11,16.63,16.84,10.24,9.09,22.33,17.32,33.17,18.16,12.63,.98,18.99,.49,20.53,4.59,1.57,4.16-3.49,6.7-3.49,6.7,0,0,1.72,2.77,.67,5.29-.82,2-3,2.74-3,2.74Z"/>
          <g class="cls-11">
            <path class="cls-5" d="M315.77,247.82s-.37,.59-1.29,1.37c.73-.84,1.29-1.37,1.29-1.37Z"/>
          </g>
          <g class="cls-11">
            <path class="cls-5" d="M323.08,262c-1.43,.33-3.02,.58-4.62,.76-3.53,.41-7.11,.5-9.16,.41-4.31-.19-8.87-1.28-13.36-3-6.14-2.36-12.18-5.91-17.39-9.99-4.89-3.84-9.04-8.16-11.83-12.41h0c-.33-1.65,1.63-2.77,2.89-1.66,6.47,5.75,17.33,14.58,24.31,15.89,12.35,2.31,18.23-.84,20.56-2.8-2.12,2.43-5.74,7.52-1.83,10.34,1.5,1.08,6.85,2.47,10.43,2.46Z"/>
          </g>
          <path class="cls-5" d="M257.64,194.42c2.02,3.92,4.73,7.33,7.56,10.62,2.83,3.29,5.89,6.37,9.01,9.4,6.23,6.05,12.78,11.83,20.13,16.62,3.67,2.39,7.57,4.5,11.75,6.05,2.08,.8,4.27,1.36,6.49,1.76,2.3,.34,4.41,.44,6.57,.58,2.15,.14,4.31,.26,6.43,.43,.53,.04,1.06,.08,1.58,.14,.53,.05,1.04,.11,1.55,.18,1.02,.14,2.02,.32,2.91,.61,.89,.28,1.64,.68,2.07,1.21,.43,.5,.7,1.32,.66,2,0,.09,0,.17-.01,.26l-.06,.26c-.02,.18-.12,.34-.18,.52-.17,.34-.37,.69-.67,1.01-.27,.33-.61,.63-.96,.92-.18,.14-.37,.28-.56,.4-.18,.12-.41,.26-.55,.33l-1.37,.72,.8,1.31c.04,.07,.14,.25,.2,.39,.07,.15,.14,.3,.2,.46,.12,.31,.22,.63,.28,.94,.14,.63,.15,1.24,.02,1.77-.13,.53-.38,.99-.8,1.4-.2,.2-.44,.39-.7,.56-.13,.09-.27,.16-.4,.23-.07,.03-.14,.07-.2,.1l-.16,.07-.73,.31-.2,.7c-.02,.06-.08,.25-.13,.38-.06,.14-.12,.28-.19,.42-.13,.28-.29,.54-.47,.78-.35,.49-.74,.86-1.23,1.13-1.09,.59-2.52,1-3.94,1.3-2.88,.6-5.9,.89-8.9,1.02-3.03,.14-5.93,.02-8.85-.57-.36-.07-.73-.12-1.09-.2l-1.08-.27c-.72-.19-1.45-.34-2.16-.57l-2.13-.69-.53-.17-.52-.2-1.05-.41c-1.41-.51-2.76-1.18-4.12-1.79-.68-.32-1.34-.69-2-1.03-.67-.34-1.34-.69-1.98-1.08l-1.95-1.14c-.64-.4-1.26-.82-1.89-1.23l-.95-.62-.92-.66-1.83-1.32c-2.38-1.84-4.59-3.89-6.71-5.99-2.14-2.1-4.17-4.23-6.55-6.28h0c-.21-.19-.52-.16-.7,.04-.12,.14-.15,.32-.09,.48,1.05,3.06,3.03,5.61,5.17,7.91,.56,.56,1.12,1.11,1.69,1.65,.57,.54,1.19,1.02,1.79,1.54,1.18,1.04,2.45,1.95,3.68,2.94l1.91,1.38,.96,.68,.98,.64c.66,.42,1.31,.86,1.97,1.28l2.03,1.19c.67,.41,1.37,.77,2.06,1.13,.7,.36,1.38,.74,2.09,1.07,1.43,.65,2.84,1.34,4.32,1.88l1.1,.43,.55,.21,.56,.18,2.25,.73c.75,.24,1.53,.4,2.3,.6l1.15,.29c.39,.08,.78,.14,1.17,.21,3.11,.64,6.39,.76,9.49,.61,3.13-.14,6.25-.43,9.39-1.08,1.57-.35,3.14-.75,4.76-1.61,.86-.47,1.61-1.19,2.15-1.95,.28-.38,.51-.78,.71-1.19,.1-.21,.19-.42,.28-.63,.09-.23,.16-.41,.24-.71l-.93,1c.18-.07,.28-.11,.4-.16,.12-.05,.23-.11,.34-.16,.22-.12,.44-.24,.65-.37,.42-.27,.82-.58,1.18-.95,.74-.72,1.32-1.72,1.56-2.76,.25-1.04,.2-2.09,0-3.04-.1-.48-.24-.93-.41-1.38-.09-.22-.18-.44-.28-.65-.11-.23-.2-.4-.36-.68l-.58,2.04c.34-.18,.57-.33,.84-.5,.26-.17,.51-.35,.75-.54,.49-.38,.95-.81,1.37-1.31,.43-.48,.79-1.06,1.09-1.69,.12-.33,.28-.65,.35-1.01l.12-.53c.02-.18,.03-.36,.04-.54,.05-.73-.08-1.45-.29-2.11-.22-.67-.56-1.32-1.04-1.88-.22-.3-.51-.51-.77-.76-.27-.24-.57-.39-.85-.58-.58-.32-1.18-.58-1.75-.75-1.16-.38-2.3-.57-3.41-.72-.56-.08-1.11-.15-1.66-.19-.55-.06-1.1-.1-1.64-.15-2.18-.17-4.33-.29-6.47-.43-2.13-.14-4.33-.26-6.3-.55-2.01-.37-4.02-.87-5.96-1.62-3.9-1.44-7.64-3.45-11.18-5.77-3.55-2.31-6.94-4.89-10.2-7.63-3.26-2.74-6.42-5.63-9.43-8.66-3.02-3.02-5.88-6.22-8.8-9.34-2.9-3.15-5.79-6.3-9.06-9.18h0c-.2-.18-.51-.16-.69,.04-.14,.15-.16,.37-.07,.54Z"/>
          <g>
            <path class="cls-2" d="M196.68,160.69c3.94,74.75,107.92,72.99,111.9,1.01-2.22-76.61-109.7-74.69-111.9-1.01Z"/>
            <path class="cls-2" d="M196.68,160.69c3.94,74.75,107.92,72.99,111.9,1.01-2.22-76.61-109.7-74.69-111.9-1.01Z"/>
            <g class="cls-11">
              <path class="cls-5" d="M281.79,219.56c-4.33,2.26-8.94,3.93-13.69,5.01-1.28,.29-2.57,.54-3.87,.75-15.34,2.44-31.62-1.16-44.07-10.96-3.87-3.04-7.36-6.67-10.35-10.91,1.16-3.49,2.54-7.14,4.14-10.95,.84-1.99,1.74-4.02,2.7-6.1l42.51,13.51-1.15-5.77c.1,.13,2.34,3.05,6.05,7.33l1.22,.39c-.04,.29-.09,.58-.13,.87,4.23,4.81,10.05,11,16.63,16.84Z"/>
            </g>
            <path class="cls-2" d="M196.68,160.69c3.94,74.75,107.92,72.99,111.9,1.01-2.22-76.61-109.7-74.69-111.9-1.01Z"/>
            <path class="cls-5" d="M252.33,217.24c-14.29-.02-27.73-5.02-37.85-14.07-11.38-10.19-17.89-24.86-18.82-42.43v-.04s0-.04,0-.04c.52-17.47,6.93-32.17,18.55-42.53,10.36-9.24,24.09-14.32,38.67-14.32h.03c14.56,0,28.18,5.12,38.36,14.39,11.48,10.46,17.82,25.49,18.34,43.47v.04s0,.04,0,.04c-.94,17.09-7.54,31.45-19.07,41.53-10.29,9-23.83,13.96-38.13,13.96h-.08Zm.57-111.39h-.03c-25.78,0-54.02,17.15-55.17,54.82,2,37.61,28.87,54.48,54.63,54.52h.07c25.14,0,53.1-16.73,55.15-53.51-1.13-38.34-29.12-55.82-54.65-55.83Z"/>
            <g class="cls-11">
              <path class="cls-5" d="M196.68,160.69c2.28,64.62,88.1,76.11,109.01,17.58-12.56,15.91-19.02,13.41-33.05,17.49-44.05,14.44-77.45-30.79-64.37-69.4-7.69,9.98-11.63,22.11-11.6,34.33Z"/>
            </g>
            <path class="cls-4" d="M252.33,217.65c-14.39-.02-27.93-5.05-38.13-14.18-11.47-10.26-18.02-25.03-18.95-42.71v-.06s0-.06,0-.06c.52-17.58,6.99-32.39,18.69-42.82,10.43-9.3,24.26-14.43,38.94-14.43h.03c14.66,0,28.39,5.15,38.64,14.5,11.56,10.53,17.95,25.67,18.47,43.76v.06s0,.06,0,.06c-.95,17.2-7.59,31.66-19.21,41.82-10.37,9.07-24,14.06-38.4,14.06-.03,0-.05,0-.08,0Zm.57-111.39h-.03c-25.58,0-53.61,17.02-54.76,54.41,2,37.33,28.66,54.08,54.22,54.11,.02,0,.05,0,.07,0,24.95,0,52.69-16.61,54.74-53.1-1.13-38.05-28.9-55.4-54.24-55.41Z"/>
            <path class="cls-5" d="M252.33,217.65c-14.39-.02-27.93-5.05-38.13-14.18-11.47-10.26-18.02-25.03-18.95-42.71v-.06s0-.06,0-.06c.52-17.58,6.99-32.39,18.69-42.82,10.43-9.3,24.26-14.43,38.94-14.43h.03c14.66,0,28.39,5.15,38.64,14.5,11.56,10.53,17.95,25.67,18.47,43.76v.06s0,.06,0,.06c-.95,17.2-7.59,31.66-19.21,41.82-10.37,9.07-24,14.06-38.4,14.06-.03,0-.05,0-.08,0Zm.57-111.39h-.03c-25.58,0-53.61,17.02-54.76,54.41,2,37.33,28.66,54.08,54.22,54.11,.02,0,.05,0,.07,0,24.95,0,52.69-16.61,54.74-53.1-1.13-38.05-28.9-55.4-54.24-55.41Z"/>
            <path class="cls-5" d="M198.56,174.91c31.32,57.78,106.52,25.91,89.45-29.04-22.86-60.39-103.74-36.27-89.45,29.04Z"/>
            <path class="cls-7" d="M205.64,133.75c-30.8,50.79,39.47,98.78,75.25,56.97-39.8,13.39-76.4-24.13-75.25-56.97Z"/>
            <path class="cls-5" d="M241.14,212.79c-12.14-.95-23.27-6.02-31.35-14.3-9.1-9.32-14.13-22.38-14.54-37.77h0c-.5-25.49,19.62-54.45,50.36-56.95h.12s.12,0,.12,0c15.05,1.34,29.41,9.44,39.4,22.24,9.95,12.75,14.31,28.55,11.97,43.4-2.63,14.24-9.9,25.93-21.02,33.81-8.95,6.34-19.76,9.73-30.84,9.73-1.4,0-2.81-.05-4.22-.16Zm-43.03-52.14c.92,33.95,23.87,47.77,43.25,49.28,22.27,1.73,47.63-11.8,53.02-41,2.22-14.02-1.94-29.02-11.4-41.15-9.47-12.14-23.05-19.83-37.27-21.13-29.06,2.44-48.07,29.87-47.6,54.01Zm-1.44,.03h0Z"/>
            <path class="cls-5" d="M228.75,204.22c-12.91-4.59-23.78-14.49-31.45-28.63l-.1-.18-.04-.2c-3.43-15.68-1.68-30.17,5.06-41.9,6.03-10.5,15.74-18.18,27.33-21.62,11.33-3.36,23.32-2.33,33.77,2.92,11.62,5.84,20.62,16.47,26.03,30.75l.03,.08c3.98,12.81,3.3,25.24-1.97,35.96-4.77,9.7-13.1,17.45-23.47,21.81-6.05,2.55-12.47,3.83-18.9,3.83-5.5,0-11.01-.94-16.3-2.82Zm1.62-89.78c-19.66,5.84-37.55,27.09-30.45,59.96,16.14,29.59,43.21,34.47,62.91,26.16,17.89-7.54,32.19-27.23,23.82-54.23-11.44-30.18-36.51-37.76-56.28-31.89Zm-31.81,60.47h0Z"/>
            <path class="cls-2" d="M301.1,203.01c-16.53,20.58-38.54,5.74-24.74-15.5,16.54-22.2,40.07-6.34,24.74,15.5Z"/>
            <g class="cls-11">
              <path class="cls-5" d="M277.08,210.86c-6.63-4.4-6.7-15.69,.07-24.42-1.51,12.43,18.5,2.21,21.98-2.05,14.98,14.78-10.04,34.81-22.05,26.47Z"/>
            </g>
            <path class="cls-5" d="M276.04,211.78c-5.81-4.21-8.33-13.58-.88-25.05l.05-.08c8.94-12,20.24-13.48,26.78-8.75,5.9,4.27,8.51,14.2,.29,25.93l-.06,.07c-5.99,7.45-12.55,10.38-18.08,10.38-3.12,0-5.92-.93-8.1-2.51Zm24.27-31.54c-5.4-3.9-14.95-2.37-22.77,8.1-6.4,9.87-4.52,17.71,.18,21.12,4.98,3.6,14.05,2.85,22.23-7.3,7.08-10.11,5.15-18.45,.36-21.91Z"/>
            <path class="cls-2" d="M301.25,204.79c-13.42,16.66-30.09,5.82-18.93-11.35,13.47-18.26,31.58-6.46,18.93,11.35Z"/>
            <path class="cls-5" d="M281.27,212.66c-4.45-3.23-6.23-10.66-.16-20l.05-.07c7.44-10.09,16.55-11.59,21.71-7.86,4.58,3.31,6.39,11.26-.45,20.89l-.05,.07c-5.1,6.34-10.56,8.83-15.05,8.83-2.35,0-4.43-.68-6.05-1.86Zm19.92-25.6c-4-2.9-11.36-1.35-17.69,7.2-5.02,7.74-3.89,13.65-.54,16.08,3.64,2.64,10.56,1.76,17.15-6.41,5.68-8.02,4.54-14.36,1.08-16.87Z"/>
            <g class="cls-14">
              <path class="cls-2" d="M277.72,175.12c-8.01,7.71-16.9-1.26-11.11-9.09,7.87-9.46,18.53,.94,11.11,9.09Z"/>
            </g>
            <g class="cls-14">
              <path class="cls-2" d="M263.64,186.34c-3.23,2.77-7.2-1.07-3.97-4.41,3.23-2.77,7.2,1.08,3.97,4.41Z"/>
            </g>
            <g class="cls-14">
              <path class="cls-2" d="M208.53,140.33c14.73-39.82,55.06-22.9,62.04-8.64-25.07-12.21-44.3-3.46-62.04,8.64Z"/>
            </g>
            <g class="cls-11">
              <path class="cls-5" d="M279,197.06c1.16-2.78,3.08-5.25,5.41-7.18-3.87,14.27,11.75,15.98,19.75,8.76-7.8,19.91-31.36,17.75-25.16-1.58Z"/>
            </g>
            <path class="cls-5" d="M287.53,175.02c.28,0,.58-.02,.9-.06,.79-.11,1.34-.83,1.23-1.61-.11-.79-.83-1.34-1.61-1.23-.81,.11-1.06-.04-1.06-.04-.16-.31,.2-1.76,.9-2.98,.39-.69,.15-1.56-.53-1.96-.69-.39-1.56-.16-1.96,.53-.52,.91-2.11,4.02-.77,6.03,.43,.63,1.27,1.33,2.9,1.33Z"/>
          </g>
          <path class="cls-2" d="M312.58,238.12c9.17,1.11,15.37,4.2,15.25,6.71-.09,1.84-1.67,4.22-5.49,3.93-2.61-.2-5.84-1.72-5.84-1.72,0,0-3.86,4.41-7.47,5.33"/>
          <path class="cls-5" d="M312.41,239.54c2.51,.31,4.99,.78,7.38,1.49,1.19,.36,2.36,.78,3.45,1.29,1.08,.5,2.13,1.13,2.77,1.81,.16,.17,.26,.33,.32,.45,.03,.06,.04,.11,.05,.14,0,.01,.01,.03,0,.03,0,.02,.01-.02,0,.05-.03,.39-.16,.81-.39,1.16-.45,.71-1.23,1.18-2.21,1.32-1.97,.3-4.46-.74-6.64-1.61l-1.09-.44-.7,.81c-.44,.51-.96,1.08-1.46,1.61-.5,.54-1.03,1.06-1.55,1.56-.54,.5-1.07,.99-1.64,1.45-.57,.45-1.16,.87-1.8,1.24l-.03,.02c-.23,.14-.31,.44-.18,.67,.09,.16,.27,.25,.44,.24,.85-.03,1.69-.25,2.47-.55l.58-.24c.19-.09,.37-.18,.56-.28,.38-.18,.73-.39,1.08-.61,.71-.43,1.36-.92,1.99-1.44,.32-.25,.62-.53,.92-.81,.31-.28,.58-.55,.89-.88l-1.79,.37c1.29,.62,2.54,1.06,3.92,1.4,1.36,.31,2.86,.59,4.45,.31,.79-.13,1.6-.38,2.34-.82,.74-.44,1.39-1.07,1.86-1.81,.47-.74,.76-1.59,.82-2.5,.01-.09,0-.29,0-.43,0-.16-.04-.3-.06-.45-.06-.29-.16-.55-.27-.78-.23-.46-.51-.83-.79-1.14-.57-.62-1.19-1.06-1.8-1.46-.62-.39-1.24-.72-1.87-1.01-1.26-.59-2.55-1.05-3.84-1.44-2.59-.77-5.22-1.27-7.86-1.59-.79-.1-1.5,.46-1.6,1.25-.1,.79,.46,1.5,1.25,1.6h0s0,0,0,0Z"/>
          <path class="cls-5" d="M285.38,256.35c.2,0,.41-.04,.6-.13,.72-.33,1.03-1.19,.7-1.9-5.3-11.47,9.98-22.62,10.13-22.73,.64-.46,.79-1.36,.33-2-.46-.64-1.36-.79-2-.33-.71,.51-17.36,12.63-11.07,26.26,.24,.52,.76,.83,1.3,.83Z"/>
          <path class="cls-5" d="M331.48,247.67c-.99,.45-1.98,.83-2.99,1.07-1.01,.24-2.07,.33-3.21,.4-1.14,.07-2.32,.15-3.48,.29-1.17,.14-2.31,.34-3.46,.56-.39,.08-.64,.45-.57,.84,.07,.36,.4,.61,.76,.58h.02c1.13-.1,2.25-.18,3.37-.19,1.12-.02,2.23,.02,3.38,.08,1.15,.05,2.38,.08,3.63-.08,1.25-.17,2.44-.49,3.59-.87,.75-.25,1.16-1.06,.91-1.82-.25-.75-1.06-1.16-1.82-.91-.05,.02-.09,.03-.14,.05h0Z"/>
          <path class="cls-5" d="M329,255.78c-.55,.2-1.09,.25-1.85,.2-.74-.06-1.62-.21-2.56-.34-.96-.11-1.91-.17-2.86-.15-.95,.01-1.88,.07-2.84,.23-.4,.07-.67,.45-.6,.84,.05,.29,.26,.51,.53,.58h.02c1.76,.48,3.54,.84,5.21,1.29,.86,.22,1.77,.49,2.85,.59,.54,.05,1.13,.05,1.73-.06,.6-.11,1.22-.33,1.74-.68,.66-.44,.85-1.33,.41-1.99-.37-.57-1.08-.78-1.69-.56l-.1,.04Z"/>
          <path class="cls-5" d="M308.3,271.4c-.21,1.07-.54,2.2-.92,3.26-.38,1.07-.83,2.12-1.35,3.13-.51,1.01-1.08,1.98-1.73,2.9-.62,.93-1.35,1.78-2.08,2.61l-.04,.04c-.53,.59-.47,1.5,.12,2.03,.59,.53,1.5,.47,2.03-.12,.03-.04,.06-.07,.09-.11,.73-1.01,1.44-2.04,2.02-3.13,.6-1.08,1.12-2.2,1.56-3.34,.45-1.14,.81-2.31,1.1-3.49,.29-1.19,.52-2.36,.63-3.62,.03-.39-.26-.74-.65-.78-.37-.03-.7,.22-.77,.58v.04Z"/>
        </g>
      </g>
    </g>
  </g>
</svg>