<svg xmlns="http://www.w3.org/2000/svg" xmlns:svgjs="http://svgjs.com/svgjs" xmlns:xlink="http://www.w3.org/1999/xlink" width="288" height="288"><svg xmlns="http://www.w3.org/2000/svg" width="288" height="288" viewBox="0 0 144.083 144"><path fill="#fff" d="M72.04 11.166c-33.543 0-60.833 27.29-60.833 60.834s27.29 60.834 60.833 60.834c33.544 0 60.835-27.29 60.835-60.834S105.584 11.166 72.04 11.166zm0 115.668c-30.235 0-54.833-24.599-54.833-54.834S41.805 17.166 72.04 17.166c30.237 0 54.835 24.599 54.835 54.834s-24.598 54.834-54.835 54.834z" class="color000 svgShape"/><path fill="#fff" d="M65.31 70.642c1.871-.847 3.354-2.117 4.447-3.812a10.098 10.098 0 0 0 1.64-5.586c0-1.871-.443-3.561-1.329-5.067-.887-1.507-1.996-2.714-3.325-3.62-1.33-.906-2.837-1.501-4.521-1.787-1.684-.286-4.239-.429-7.668-.429H37.236v43.321h14.745c5.575-.041 9.092-.139 10.55-.297 2.324-.256 4.28-.941 5.865-2.053 1.587-1.113 2.838-2.602 3.754-4.463.916-1.861 1.373-3.777 1.373-5.748 0-2.502-.709-4.678-2.127-6.531-1.417-1.849-3.448-3.16-6.086-3.928zM45.982 57.551h5.024c4.117 0 6.609.049 7.477.147 1.457.178 2.556.686 3.294 1.521.739.839 1.108 1.927 1.108 3.266 0 1.399-.428 2.527-1.285 3.384-.857.857-2.034 1.374-3.531 1.552-.827.099-2.945.147-6.354.147h-5.733V57.551zm17.274 26.816c-.818.916-1.877 1.492-3.177 1.729-.848.178-2.848.266-5.999.266h-8.098V74.779h7.063c3.979 0 6.564.205 7.757.619 1.191.414 2.103 1.074 2.733 1.98.63.906.945 2.01.945 3.311.001 1.536-.407 2.762-1.224 3.678zm39.014-19.176c-2.838-3.082-6.709-4.624-11.617-4.624-4.369 0-7.982 1.473-10.84 4.418s-4.285 7.017-4.285 12.218c0 4.354 1.086 7.959 3.262 10.816 2.752 3.566 6.998 5.348 12.732 5.348 3.625 0 6.643-.793 9.055-2.379 2.412-1.584 5.5-4.861 5.559-7.762l-8.959.053c-.477 1.576-1.182 2.109-2.111 2.818-.934.709-2.082 1.064-3.449 1.064-2.008 0-3.686-.684-5.031-2.053-1.346-1.371-2.049-3.287-2.111-5.748h21.865c.121-6.362-1.234-11.085-4.07-14.169zm-17.643 9.086c-.021-2.264.59-4.057 1.832-5.377 1.242-1.319 2.816-1.979 4.723-1.979 1.779 0 3.291.625 4.533 1.876s1.895 3.078 1.957 5.48H84.627zM82.301 52.193h17.477v4.227H82.301z" class="color000 svgShape"/></svg></svg>