<?xml version="1.0" encoding="UTF-8"?>
<svg id="Layer_2" data-name="Layer 2" xmlns="http://www.w3.org/2000/svg" viewBox="0 0 160.22 77.08">
  <defs>
    <style>
      .cls-1 {
        fill: #f7f8f3;
      }

      .cls-2 {
        fill: #f1cbb5;
      }
    </style>
  </defs>
  <g id="Camada_2" data-name="Camada 2">
    <g>
      <path class="cls-1" d="M30.14,0V34.08h-9.36v-13.34H9.36v13.34H0V0H9.36V12.58h11.42V0h9.36Z"/>
      <path class="cls-1" d="M44.83,0h8.54l11.81,34.08h-9.5l-2.06-6.67h-9.07l-2.02,6.67h-9.55L44.83,0Zm7.3,21.17l-3.02-10.56-3.17,10.56h6.19Z"/>
      <path class="cls-1" d="M68.02,34.08V0h15.65c1.66,0,3.2,.34,4.61,1.03,1.41,.69,2.62,1.58,3.62,2.69,1.01,1.1,1.8,2.37,2.38,3.79,.58,1.42,.86,2.86,.86,4.3,0,1.98-.43,3.83-1.3,5.54-.86,1.71-2.06,3.11-3.6,4.2l7.2,12.53h-10.56l-6-10.46h-3.5v10.46h-9.36Zm9.36-18.62h5.9c.58,0,1.11-.32,1.61-.96,.5-.64,.74-1.54,.74-2.69s-.29-2.09-.86-2.71c-.58-.62-1.15-.94-1.73-.94h-5.66v7.3Z"/>
      <path class="cls-1" d="M100.42,34.08V0h15.65c1.66,0,3.2,.34,4.61,1.03,1.41,.69,2.62,1.58,3.62,2.69,1.01,1.1,1.8,2.37,2.38,3.79,.58,1.42,.86,2.86,.86,4.3,0,1.98-.43,3.83-1.3,5.54-.86,1.71-2.06,3.11-3.6,4.2l7.2,12.53h-10.56l-6-10.46h-3.5v10.46h-9.36Zm9.36-18.62h5.9c.58,0,1.11-.32,1.61-.96,.5-.64,.74-1.54,.74-2.69s-.29-2.09-.86-2.71c-.58-.62-1.15-.94-1.73-.94h-5.66v7.3Z"/>
      <path class="cls-1" d="M137.71,0l6.1,14.74,6.24-14.74h10.18l-11.76,22.8v11.28h-9.31v-11.38L127.58,0h10.13Z"/>
      <path class="cls-2" d="M0,77.08V43H9.36v25.92h15.46v8.16H0Z"/>
      <path class="cls-2" d="M52.37,68.92v8.16H28.08V43h23.86v8.16h-14.5v4.8h12.38v7.58h-12.38v5.38h14.93Z"/>
    </g>
  </g>
</svg>